<svg width="271" height="80" viewBox="0 0 271 80" fill="none" xmlns="http://www.w3.org/2000/svg">
<path d="M260.163 79.9995H10.164C4.66404 79.9995 0.164062 75.4995 0.164062 69.9996V9.99986C0.164062 4.49989 4.66404 -8.39233e-05 10.164 -8.39233e-05H260.163C265.663 -8.39233e-05 270.163 4.49989 270.163 9.99986V69.9996C270.163 75.4995 265.663 79.9995 260.163 79.9995Z" fill="black"/>
<path d="M260.163 0.000404358H10.164C4.66404 0.000404358 0.164062 4.50038 0.164062 10.0004V70.0001C0.164062 75.5 4.66404 80 10.164 80H260.163C265.663 80 270.163 75.5 270.163 70.0001V10.0004C270.163 4.50038 265.663 0.000404358 260.163 0.000404358ZM260.163 1.6004C264.795 1.6004 268.563 5.36838 268.563 10.0004V70.0001C268.563 74.632 264.795 78.4 260.163 78.4H10.164C5.53204 78.4 1.76406 74.632 1.76406 70.0001V10.0004C1.76406 5.36838 5.53204 1.6004 10.164 1.6004H260.163Z" fill="#A6A6A6"/>
<path d="M95.0001 20.4861C95.0001 22.1621 94.5041 23.4961 93.5101 24.4921C92.3801 25.6761 90.9101 26.2681 89.1021 26.2681C87.3681 26.2681 85.8961 25.6681 84.6862 24.4661C83.4722 23.2661 82.8682 21.7761 82.8682 20.0001C82.8682 18.2221 83.4722 16.7341 84.6862 15.5321C85.8961 14.3321 87.3681 13.7301 89.1021 13.7301C89.9601 13.7301 90.7841 13.8981 91.5641 14.2341C92.3461 14.5701 92.9721 15.0161 93.4421 15.5741L92.3861 16.6301C91.5921 15.6821 90.4981 15.2061 89.1021 15.2061C87.8381 15.2061 86.7461 15.6501 85.8241 16.5381C84.9022 17.4281 84.4422 18.5801 84.4422 20.0001C84.4422 21.4181 84.9022 22.5721 85.8241 23.4601C86.7461 24.3501 87.8381 24.7921 89.1021 24.7921C90.4421 24.7921 91.5581 24.3461 92.4541 23.4521C93.0341 22.8701 93.3681 22.0621 93.4581 21.0221H89.1021V19.5801H94.9161C94.9721 19.8941 95.0001 20.1961 95.0001 20.4861Z" fill="white"/>
<path d="M104.219 15.475H98.7549V19.279H103.683V20.721H98.7549V24.525H104.219V26.001H97.2129V14.001H104.219V15.475Z" fill="white"/>
<path d="M110.721 26H109.179V15.4741H105.827V14.0001H114.073V15.4741H110.721V26Z" fill="white"/>
<path d="M120.039 14.0001H121.581V26H120.039V14.0001Z" fill="white"/>
<path d="M128.42 26H126.878V15.4741H123.526V14.0001H131.772V15.4741H128.42V26Z" fill="white"/>
<path d="M139.721 23.4441C140.609 24.3441 141.695 24.7921 142.981 24.7921C144.267 24.7921 145.353 24.3441 146.241 23.4441C147.129 22.5441 147.575 21.3961 147.575 20.0001C147.575 18.6041 147.129 17.4541 146.241 16.5561C145.353 15.6561 144.267 15.2061 142.981 15.2061C141.695 15.2061 140.609 15.6561 139.721 16.5561C138.835 17.4541 138.389 18.6041 138.389 20.0001C138.389 21.3961 138.835 22.5441 139.721 23.4441ZM147.381 24.4481C146.201 25.6621 144.735 26.2681 142.981 26.2681C141.227 26.2681 139.761 25.6621 138.583 24.4481C137.403 23.2361 136.815 21.7541 136.815 20.0001C136.815 18.2461 137.403 16.7621 138.583 15.5501C139.761 14.3381 141.227 13.7301 142.981 13.7301C144.725 13.7301 146.187 14.3401 147.373 15.5581C148.557 16.7761 149.149 18.2561 149.149 20.0001C149.149 21.7541 148.559 23.2361 147.381 24.4481Z" fill="white"/>
<path d="M151.313 26V14.0001H153.189L159.021 23.334H159.089L159.021 21.022V14.0001H160.565V26H158.955L152.853 16.2121H152.787L152.853 18.526V26H151.313Z" fill="white"/>
<path d="M214.034 59.9999H217.766V34.998H214.034V59.9999ZM247.648 44.004L243.37 54.8439H243.242L238.802 44.004H234.782L241.44 59.1539L237.646 67.5819H241.536L251.798 44.004H247.648ZM226.484 57.1599C225.26 57.1599 223.556 56.5499 223.556 55.0359C223.556 53.1079 225.678 52.3679 227.512 52.3679C229.152 52.3679 229.926 52.7219 230.922 53.2039C230.632 55.5199 228.638 57.1599 226.484 57.1599ZM226.934 43.458C224.232 43.458 221.432 44.648 220.276 47.286L223.588 48.668C224.296 47.286 225.614 46.834 226.998 46.834C228.928 46.834 230.89 47.992 230.922 50.0519V50.3079C230.246 49.9219 228.8 49.344 227.03 49.344C223.46 49.344 219.824 51.3059 219.824 54.9719C219.824 58.3179 222.752 60.4739 226.032 60.4739C228.542 60.4739 229.926 59.3479 230.794 58.0279H230.922V59.9579H234.524V50.372C234.524 45.934 231.212 43.458 226.934 43.458ZM203.87 47.048H198.562V38.478H203.87C206.66 38.478 208.244 40.788 208.244 42.762C208.244 44.7 206.66 47.048 203.87 47.048ZM203.774 34.998H194.832V59.9999H198.562V50.5279H203.774C207.91 50.5279 211.976 47.532 211.976 42.762C211.976 37.992 207.91 34.998 203.774 34.998ZM155.013 57.1639C152.435 57.1639 150.277 55.0059 150.277 52.0419C150.277 49.046 152.435 46.854 155.013 46.854C157.559 46.854 159.555 49.046 159.555 52.0419C159.555 55.0059 157.559 57.1639 155.013 57.1639ZM159.299 45.404H159.169C158.331 44.406 156.721 43.504 154.691 43.504C150.437 43.504 146.539 47.24 146.539 52.0419C146.539 56.8099 150.437 60.5159 154.691 60.5159C156.721 60.5159 158.331 59.6139 159.169 58.5819H159.299V59.8079C159.299 63.0619 157.559 64.8019 154.755 64.8019C152.467 64.8019 151.049 63.1579 150.469 61.7719L147.215 63.1259C148.149 65.3819 150.631 68.1519 154.755 68.1519C159.137 68.1519 162.843 65.5739 162.843 59.2919V44.018H159.299V45.404ZM165.421 59.9999H169.159V34.996H165.421V59.9999ZM174.667 51.7519C174.571 48.466 177.213 46.79 179.113 46.79C180.597 46.79 181.853 47.53 182.271 48.594L174.667 51.7519ZM186.267 48.916C185.559 47.016 183.399 43.504 178.985 43.504C174.603 43.504 170.963 46.95 170.963 52.0099C170.963 56.7779 174.571 60.5159 179.403 60.5159C183.303 60.5159 185.559 58.1319 186.493 56.7459L183.593 54.8119C182.627 56.2299 181.305 57.1639 179.403 57.1639C177.503 57.1639 176.149 56.2939 175.279 54.5879L186.653 49.882L186.267 48.916ZM95.651 46.114V49.722H104.285C104.027 51.7519 103.351 53.2339 102.321 54.2639C101.063 55.5219 99.097 56.9079 95.651 56.9079C90.333 56.9079 86.1771 52.6219 86.1771 47.306C86.1771 41.988 90.333 37.704 95.651 37.704C98.519 37.704 100.613 38.832 102.159 40.282L104.705 37.736C102.545 35.674 99.679 34.094 95.651 34.094C88.369 34.094 82.2471 40.024 82.2471 47.306C82.2471 54.5879 88.369 60.5159 95.651 60.5159C99.581 60.5159 102.545 59.2259 104.865 56.8099C107.251 54.4259 107.991 51.0759 107.991 48.368C107.991 47.53 107.927 46.758 107.797 46.114H95.651ZM117.809 57.1639C115.231 57.1639 113.007 55.0379 113.007 52.0099C113.007 48.948 115.231 46.854 117.809 46.854C120.385 46.854 122.609 48.948 122.609 52.0099C122.609 55.0379 120.385 57.1639 117.809 57.1639ZM117.809 43.504C113.103 43.504 109.269 47.08 109.269 52.0099C109.269 56.9079 113.103 60.5159 117.809 60.5159C122.513 60.5159 126.347 56.9079 126.347 52.0099C126.347 47.08 122.513 43.504 117.809 43.504ZM136.435 57.1639C133.857 57.1639 131.633 55.0379 131.633 52.0099C131.633 48.948 133.857 46.854 136.435 46.854C139.013 46.854 141.235 48.948 141.235 52.0099C141.235 55.0379 139.013 57.1639 136.435 57.1639ZM136.435 43.504C131.731 43.504 127.897 47.08 127.897 52.0099C127.897 56.9079 131.731 60.5159 136.435 60.5159C141.139 60.5159 144.973 56.9079 144.973 52.0099C144.973 47.08 141.139 43.504 136.435 43.504Z" fill="white"/>
<path d="M41.5986 38.8483L20.3047 61.4482C20.3067 61.4522 20.3067 61.4582 20.3087 61.4622C20.9627 63.9162 23.2027 65.7222 25.8627 65.7222C26.9267 65.7222 27.9246 65.4342 28.7806 64.9302L28.8486 64.8902L52.8165 51.0602L41.5986 38.8483Z" fill="#EA4335"/>
<path d="M63.1401 34.9997L63.1201 34.9857L52.7722 28.9877L41.1143 39.3617L52.8142 51.0576L63.1061 45.1196C64.9101 44.1437 66.1361 42.2417 66.1361 40.0497C66.1361 37.8697 64.9281 35.9777 63.1401 34.9997Z" fill="#FBBC04"/>
<path d="M20.3034 18.554C20.1754 19.026 20.1074 19.522 20.1074 20.034V59.9698C20.1074 60.4818 20.1754 60.9778 20.3054 61.4478L42.3293 39.4259L20.3034 18.554Z" fill="#4285F4"/>
<path d="M41.7556 40.002L52.7755 28.984L28.8357 15.1041C27.9657 14.5821 26.9497 14.2821 25.8637 14.2821C23.2037 14.2821 20.9597 16.0921 20.3057 18.5481C20.3057 18.5501 20.3037 18.5521 20.3037 18.5541L41.7556 40.002Z" fill="#34A853"/>
</svg>
