<svg width="30" height="20" viewBox="0 0 30 20" fill="none" xmlns="http://www.w3.org/2000/svg">
<path d="M29.6848 9.69625C29.6423 9.59875 28.6023 7.2925 26.2798 4.97C24.1248 2.8175 20.4223 0.25 14.9998 0.25C9.57732 0.25 5.87482 2.8175 3.71982 4.97C1.39732 7.2925 0.357318 9.595 0.314818 9.69625C0.272083 9.79225 0.25 9.89616 0.25 10.0012C0.25 10.1063 0.272083 10.2102 0.314818 10.3062C0.357318 10.4025 1.39732 12.7087 3.71982 15.0312C5.87482 17.1838 9.57732 19.75 14.9998 19.75C20.4223 19.75 24.1248 17.1838 26.2798 15.0312C28.6023 12.7087 29.6423 10.4062 29.6848 10.3062C29.7276 10.2102 29.7496 10.1063 29.7496 10.0012C29.7496 9.89616 29.7276 9.79225 29.6848 9.69625ZM14.9998 18.25C11.0773 18.25 7.65232 16.8225 4.81857 14.0088C3.63066 12.8282 2.62544 11.4771 1.83607 10C2.62522 8.52316 3.63047 7.17243 4.81857 5.9925C7.65232 3.1775 11.0773 1.75 14.9998 1.75C18.9223 1.75 22.3473 3.1775 25.1811 5.9925C26.3692 7.17243 27.3744 8.52316 28.1636 10C27.3673 11.5262 23.3748 18.25 14.9998 18.25ZM14.9998 4.25C13.8626 4.25 12.7509 4.58723 11.8053 5.21905C10.8597 5.85087 10.1227 6.74889 9.68751 7.79957C9.25231 8.85025 9.13844 10.0064 9.3603 11.1218C9.58217 12.2372 10.1298 13.2617 10.934 14.0659C11.7381 14.87 12.7627 15.4177 13.878 15.6395C14.9934 15.8614 16.1496 15.7475 17.2002 15.3123C18.2509 14.8771 19.1489 14.1401 19.7808 13.1945C20.4126 12.2489 20.7498 11.1372 20.7498 10C20.7478 8.47561 20.1414 7.01423 19.0635 5.93633C17.9856 4.85842 16.5242 4.25198 14.9998 4.25ZM14.9998 14.25C14.1592 14.25 13.3376 14.0007 12.6386 13.5337C11.9397 13.0668 11.395 12.403 11.0733 11.6264C10.7517 10.8498 10.6675 9.99529 10.8315 9.17087C10.9955 8.34645 11.4002 7.58917 11.9946 6.9948C12.589 6.40042 13.3463 5.99565 14.1707 5.83166C14.9951 5.66768 15.8496 5.75184 16.6262 6.07351C17.4028 6.39518 18.0666 6.93992 18.5336 7.63883C19.0006 8.33774 19.2498 9.15943 19.2498 10C19.2498 11.1272 18.802 12.2082 18.005 13.0052C17.208 13.8022 16.127 14.25 14.9998 14.25Z" fill="#00D195"/>
</svg>
