<svg width="241" height="80" viewBox="0 0 241 80" fill="none" xmlns="http://www.w3.org/2000/svg">
            <path d="M221.106 0.000259999H19.9062C19.1728 0.000259999 18.4482 0.000259999 17.7168 0.00425999C17.1045 0.00825997 16.497 0.0198799 15.8789 0.0296599C14.5359 0.0454635 13.1961 0.163612 11.8711 0.383079C10.5479 0.607323 9.26623 1.03009 8.06933 1.63707C6.87389 2.2492 5.78159 3.04459 4.83204 3.99439C3.87751 4.94152 3.08183 6.03627 2.47561 7.23656C1.86771 8.43445 1.44619 9.71811 1.22561 11.0432C1.00294 12.3666 0.883111 13.7053 0.867214 15.0472C0.848654 15.6604 0.846694 16.2756 0.836914 16.8889V63.1173C0.846694 63.7383 0.848654 64.3399 0.867214 64.9611C0.883116 66.3029 1.00294 67.6415 1.22561 68.9648C1.44558 70.2907 1.86713 71.5751 2.47561 72.7734C3.08156 73.9698 3.87735 75.0602 4.83204 76.002C5.77799 76.956 6.871 77.752 8.06933 78.3594C9.26622 78.968 10.5478 79.3933 11.8711 79.621C13.1963 79.8387 14.536 79.9569 15.8789 79.9746C16.497 79.9882 17.1045 79.996 17.7168 79.996C18.4482 80 19.1729 80 19.9062 80H221.106C221.825 80 222.555 80 223.274 79.996C223.883 79.996 224.508 79.9882 225.118 79.9746C226.458 79.9578 227.795 79.8396 229.118 79.621C230.445 79.3917 231.731 78.9665 232.934 78.3594C234.131 77.7516 235.223 76.9557 236.168 76.002C237.121 75.0565 237.918 73.9669 238.531 72.7734C239.135 71.5742 239.553 70.2899 239.77 68.9648C239.993 67.6413 240.117 66.303 240.141 64.9611C240.149 64.3399 240.149 63.7383 240.149 63.1173C240.164 62.3907 240.164 61.6681 240.164 60.9297V19.0725C240.164 18.34 240.164 17.6135 240.149 16.8889C240.149 16.2756 240.149 15.6604 240.141 15.0471C240.117 13.7051 239.993 12.3667 239.77 11.0431C239.552 9.71879 239.135 8.43524 238.531 7.23648C237.297 4.83064 235.339 2.8723 232.934 1.63689C231.731 1.03139 230.445 0.608739 229.118 0.382899C227.795 0.162465 226.458 0.0442754 225.118 0.0293799C224.508 0.0196199 223.883 0.00789997 223.274 0.00399999C222.555 0 221.825 0 221.106 0V0.000259999Z" fill="#A6A6A6" />
            <path d="M17.7266 78.2498C17.1172 78.2498 16.5226 78.242 15.918 78.2284C14.6656 78.212 13.4161 78.103 12.1798 77.9022C11.0269 77.7036 9.91017 77.3343 8.86629 76.8064C7.83197 76.2828 6.8886 75.5963 6.0723 74.7732C5.24418 73.9597 4.55473 73.0163 4.03128 71.9802C3.50206 70.9374 3.13581 69.8196 2.94529 68.6658C2.73954 67.426 2.62822 66.1724 2.61229 64.9158C2.59961 64.494 2.58301 63.0896 2.58301 63.0896V16.8886C2.58301 16.8886 2.60069 15.5058 2.61239 15.0996C2.62764 13.8449 2.73831 12.5933 2.94345 11.3554C3.13432 10.1985 3.50086 9.07747 4.03036 8.03124C4.55189 6.99587 5.23751 6.05171 6.06064 5.23535C6.88284 4.41123 7.82923 3.7212 8.86531 3.19042C9.90679 2.66418 11.0215 2.29746 12.1719 2.10254C13.4123 1.89967 14.6662 1.78999 15.9229 1.77442L17.7276 1.75H223.264L225.09 1.7754C226.336 1.7902 227.578 1.8989 228.807 2.10058C229.969 2.29795 231.095 2.66723 232.149 3.19628C234.224 4.26596 235.913 5.95831 236.979 8.03612C237.5 9.07513 237.861 10.187 238.049 11.3339C238.257 12.5819 238.373 13.8434 238.397 15.1084C238.403 15.6748 238.403 16.2832 238.403 16.8886C238.418 17.6386 238.418 18.3525 238.418 19.0722V60.9294C238.418 61.656 238.418 62.365 238.403 63.0798C238.403 63.7302 238.403 64.326 238.395 64.9392C238.371 66.1815 238.257 67.4205 238.053 68.6462C237.866 69.8083 237.502 70.9348 236.973 71.9862C236.446 73.011 235.76 73.9463 234.942 74.7576C234.125 75.5851 233.18 76.2757 232.143 76.8026C231.093 77.3345 229.968 77.7052 228.807 77.9022C227.571 78.1041 226.321 78.2131 225.069 78.2284C224.483 78.242 223.869 78.2498 223.274 78.2498L221.106 78.2538L17.7266 78.2498Z" fill="black" />
            <path d="M50.3748 40.6016C50.3963 38.9323 50.8397 37.2955 51.6638 35.8436C52.4878 34.3917 53.6657 33.1718 55.0879 32.2975C54.1844 31.0072 52.9925 29.9453 51.6069 29.1962C50.2213 28.4471 48.68 28.0314 47.1056 27.9822C43.7471 27.6296 40.4913 29.9918 38.7798 29.9918C37.0353 29.9918 34.4003 28.0172 31.5629 28.0755C29.7275 28.1348 27.9388 28.6685 26.3711 29.6247C24.8033 30.5808 23.51 31.9267 22.6171 33.5313C18.7491 40.2281 21.6342 50.0701 25.3394 55.4833C27.1932 58.134 29.3598 61.0949 32.1947 60.9899C34.9688 60.8749 36.0049 59.221 39.3535 59.221C42.671 59.221 43.643 60.9899 46.5354 60.9232C49.5122 60.8748 51.3877 58.2607 53.1764 55.5849C54.5084 53.6962 55.5333 51.6088 56.2133 49.3999C54.4839 48.6685 53.008 47.4441 51.9698 45.8795C50.9315 44.3149 50.3768 42.4793 50.3748 40.6016Z" fill="white" />
            <path d="M44.912 24.4216C46.5351 22.4732 47.3347 19.9689 47.1411 17.4404C44.6614 17.7009 42.3709 18.886 40.7259 20.7596C39.9217 21.675 39.3057 22.7398 38.9132 23.8934C38.5207 25.0469 38.3594 26.2665 38.4385 27.4824C39.6788 27.4952 40.9058 27.2263 42.0271 26.6962C43.1484 26.166 44.1348 25.3883 44.912 24.4216Z" fill="white" />
            <path d="M85.4414 54.2793H75.9746L73.7012 60.9922H69.6914L78.6582 36.1562H82.8242L91.7909 60.9922H87.7128L85.4414 54.2793ZM76.955 51.1816H84.459L80.7598 40.2871H80.6563L76.955 51.1816Z" fill="white" />
            <path d="M111.156 51.9394C111.156 57.5663 108.145 61.1815 103.6 61.1815C102.448 61.2417 101.303 60.9765 100.296 60.4163C99.2882 59.856 98.4587 59.0233 97.9024 58.0135H97.8164V66.9823H94.0996V42.8847H97.6973V45.8964H97.7657C98.3476 44.8915 99.191 44.0631 100.206 43.4994C101.222 42.9357 102.371 42.6578 103.531 42.6952C108.127 42.6953 111.156 46.328 111.156 51.9394ZM107.336 51.9394C107.336 48.2734 105.441 45.8632 102.551 45.8632C99.711 45.8632 97.8008 48.3241 97.8008 51.9394C97.8008 55.5878 99.711 58.0311 102.551 58.0311C105.441 58.0311 107.336 55.6386 107.336 51.9394Z" fill="white" />
            <path d="M131.086 51.9398C131.086 57.5668 128.074 61.182 123.529 61.182C122.378 61.2422 121.233 60.977 120.225 60.4167C119.218 59.8565 118.388 59.0238 117.832 58.014H117.746V66.9827H114.029V42.8852H117.627V45.8969H117.695C118.277 44.8919 119.121 44.0636 120.136 43.4999C121.151 42.9362 122.3 42.6583 123.461 42.6957C128.057 42.6957 131.086 46.3285 131.086 51.9398ZM127.266 51.9398C127.266 48.2738 125.371 45.8637 122.48 45.8637C119.641 45.8637 117.731 48.3246 117.731 51.9398C117.731 55.5883 119.641 58.0316 122.48 58.0316C125.371 58.0316 127.266 55.639 127.266 51.9398H127.266Z" fill="white" />
            <path d="M144.258 54.0723C144.533 56.5352 146.926 58.1523 150.195 58.1523C153.328 58.1523 155.582 56.5351 155.582 54.3144C155.582 52.3867 154.223 51.2324 151.004 50.4414L147.785 49.666C143.225 48.5644 141.107 46.4316 141.107 42.9707C141.107 38.6855 144.842 35.7422 150.145 35.7422C155.393 35.7422 158.99 38.6855 159.111 42.9707H155.359C155.135 40.4922 153.086 38.9961 150.092 38.9961C147.098 38.9961 145.049 40.5098 145.049 42.7129C145.049 44.4687 146.357 45.5019 149.559 46.2929L152.295 46.9647C157.391 48.1698 159.508 50.2167 159.508 53.8495C159.508 58.496 155.807 61.4061 149.92 61.4061C144.412 61.4061 140.693 58.5643 140.453 54.0721L144.258 54.0723Z" fill="white" />
            <path d="M167.529 38.5996V42.8848H170.973V45.8281H167.529V55.8105C167.529 57.3613 168.219 58.0839 169.732 58.0839C170.141 58.0768 170.549 58.0481 170.955 57.9979V60.9237C170.274 61.0509 169.583 61.1084 168.891 61.0956C165.225 61.0956 163.795 59.7186 163.795 56.2069V45.8281H161.162V42.8848H163.795V38.5996H167.529Z" fill="white" />
            <path d="M172.967 51.9394C172.967 46.2422 176.322 42.6621 181.555 42.6621C186.805 42.6621 190.144 46.2421 190.144 51.9394C190.144 57.6523 186.822 61.2167 181.555 61.2167C176.289 61.2167 172.967 57.6523 172.967 51.9394ZM186.357 51.9394C186.357 48.0312 184.566 45.7246 181.555 45.7246C178.543 45.7246 176.754 48.0488 176.754 51.9394C176.754 55.8632 178.543 58.1523 181.555 58.1523C184.566 58.1523 186.357 55.8632 186.357 51.9394H186.357Z" fill="white" />
            <path d="M193.209 42.885H196.754V45.967H196.84C197.08 45.0044 197.644 44.1538 198.437 43.558C199.23 42.9622 200.204 42.6577 201.195 42.6955C201.624 42.694 202.051 42.7406 202.469 42.8342V46.3108C201.928 46.1455 201.364 46.0697 200.799 46.0862C200.259 46.0643 199.721 46.1595 199.221 46.3652C198.721 46.571 198.272 46.8825 197.904 47.2782C197.536 47.674 197.258 48.1447 197.089 48.6581C196.92 49.1714 196.865 49.7152 196.926 50.2521V60.9924H193.209L193.209 42.885Z" fill="white" />
            <path d="M219.605 55.6738C219.105 58.9609 215.904 61.2167 211.809 61.2167C206.541 61.2167 203.271 57.6874 203.271 52.0254C203.271 46.3457 206.559 42.6621 211.652 42.6621C216.662 42.6621 219.812 46.1035 219.812 51.5937V52.8672H207.023V53.0918C206.964 53.7582 207.048 54.4295 207.268 55.0612C207.489 55.6928 207.841 56.2704 208.301 56.7555C208.762 57.2406 209.321 57.6221 209.94 57.8747C210.56 58.1273 211.226 58.2452 211.895 58.2206C212.773 58.3029 213.654 58.0995 214.408 57.6406C215.161 57.1818 215.746 56.4919 216.076 55.6738L219.605 55.6738ZM207.041 50.2695H216.094C216.127 49.6703 216.036 49.0707 215.827 48.5083C215.618 47.9459 215.294 47.4328 214.877 47.0013C214.46 46.5697 213.958 46.2291 213.403 46.0006C212.848 45.7722 212.252 45.6609 211.652 45.6738C211.047 45.6702 210.447 45.7865 209.887 46.016C209.327 46.2455 208.818 46.5836 208.389 47.0109C207.96 47.4381 207.621 47.9461 207.389 48.5054C207.158 49.0647 207.039 49.6643 207.041 50.2695V50.2695Z" fill="white" />
            <path d="M76.4892 17.4618C77.2685 17.4059 78.0504 17.5236 78.7786 17.8065C79.5068 18.0893 80.1632 18.5303 80.7004 19.0975C81.2375 19.6648 81.6421 20.3442 81.8849 21.0867C82.1277 21.8292 82.2027 22.6164 82.1045 23.3914C82.1045 27.2039 80.0439 29.3954 76.4892 29.3954H72.1787V17.4618H76.4892ZM74.0322 27.7078H76.2822C76.839 27.741 77.3962 27.6497 77.9133 27.4405C78.4304 27.2313 78.8943 26.9094 79.2713 26.4983C79.6483 26.0871 79.9288 25.5971 80.0926 25.0639C80.2563 24.5306 80.299 23.9676 80.2177 23.4158C80.2931 22.8661 80.246 22.3066 80.0798 21.7772C79.9136 21.2479 79.6323 20.7619 79.2562 20.354C78.8801 19.9462 78.4184 19.6266 77.9042 19.4181C77.3901 19.2096 76.8362 19.1175 76.2822 19.1482H74.0322V27.7078Z" fill="white" />
            <path d="M84.1978 24.8886C84.1412 24.2967 84.2089 23.6996 84.3966 23.1355C84.5843 22.5713 84.8878 22.0526 85.2877 21.6127C85.6875 21.1727 86.175 20.8212 86.7187 20.5806C87.2624 20.3401 87.8503 20.2158 88.4449 20.2158C89.0394 20.2158 89.6274 20.3401 90.1711 20.5806C90.7148 20.8212 91.2022 21.1727 91.6021 21.6127C92.002 22.0526 92.3055 22.5713 92.4932 23.1355C92.6809 23.6996 92.7486 24.2967 92.6919 24.8886C92.7496 25.481 92.6827 26.079 92.4955 26.644C92.3084 27.2091 92.005 27.7287 91.605 28.1695C91.2051 28.6104 90.7173 28.9626 90.173 29.2037C89.6288 29.4448 89.0401 29.5693 88.4449 29.5693C87.8496 29.5693 87.261 29.4448 86.7167 29.2037C86.1725 28.9626 85.6847 28.6104 85.2847 28.1695C84.8847 27.7287 84.5814 27.2091 84.3942 26.644C84.207 26.079 84.1401 25.481 84.1978 24.8886ZM90.8638 24.8886C90.8638 22.9364 89.9868 21.7948 88.4478 21.7948C86.9029 21.7948 86.0338 22.9364 86.0338 24.8886C86.0338 26.8564 86.903 27.9892 88.4478 27.9892C89.9869 27.9891 90.8638 26.8485 90.8638 24.8886H90.8638Z" fill="white" />
            <path d="M103.983 29.395H102.14L100.278 22.7622H100.138L98.2842 29.395H96.458L93.9756 20.3892H95.7783L97.3916 27.2611H97.5244L99.376 20.3892H101.081L102.933 27.2611H103.073L104.679 20.3892H106.456L103.983 29.395Z" fill="white" />
            <path d="M108.544 20.3892H110.255V21.8199H110.388C110.613 21.3061 110.993 20.8753 111.475 20.5877C111.956 20.3001 112.516 20.17 113.075 20.2154C113.513 20.1825 113.953 20.2485 114.363 20.4087C114.772 20.5689 115.14 20.8191 115.439 21.1408C115.738 21.4625 115.962 21.8474 116.092 22.2671C116.222 22.6867 116.257 23.1303 116.192 23.565V29.395H114.415V24.0113C114.415 22.5641 113.786 21.8443 112.472 21.8443C112.174 21.8305 111.877 21.8811 111.601 21.9928C111.325 22.1044 111.076 22.2745 110.872 22.4912C110.668 22.708 110.513 22.9664 110.418 23.2486C110.323 23.5309 110.29 23.8304 110.321 24.1265V29.3951H108.544L108.544 20.3892Z" fill="white" />
            <path d="M119.024 16.8735H120.802V29.395H119.024V16.8735Z" fill="white" />
            <path d="M123.272 24.8887C123.215 24.2969 123.283 23.6997 123.471 23.1355C123.659 22.5714 123.962 22.0527 124.362 21.6127C124.762 21.1727 125.249 20.8212 125.793 20.5806C126.337 20.3401 126.925 20.2158 127.52 20.2158C128.114 20.2158 128.702 20.3401 129.246 20.5806C129.79 20.8212 130.277 21.1727 130.677 21.6127C131.077 22.0527 131.38 22.5714 131.568 23.1355C131.756 23.6997 131.824 24.2969 131.767 24.8887C131.825 25.4812 131.758 26.0792 131.571 26.6442C131.383 27.2093 131.08 27.7289 130.68 28.1697C130.28 28.6105 129.792 28.9628 129.248 29.2038C128.703 29.4449 128.115 29.5694 127.52 29.5694C126.924 29.5694 126.336 29.4449 125.791 29.2038C125.247 28.9628 124.759 28.6105 124.359 28.1697C123.959 27.7289 123.656 27.2093 123.469 26.6442C123.281 26.0792 123.214 25.4812 123.272 24.8887ZM129.938 24.8887C129.938 22.9366 129.061 21.795 127.522 21.795C125.977 21.795 125.108 22.9366 125.108 24.8888C125.108 26.8565 125.977 27.9893 127.522 27.9893C129.061 27.9893 129.938 26.8487 129.938 24.8887H129.938Z" fill="white" />
            <path d="M133.639 26.8486C133.639 25.2275 134.846 24.2929 136.988 24.1601L139.428 24.0195V23.2422C139.428 22.291 138.799 21.7539 137.584 21.7539C136.592 21.7539 135.904 22.1182 135.707 22.7549H133.986C134.168 21.208 135.623 20.2158 137.666 20.2158C139.924 20.2158 141.197 21.3398 141.197 23.2422V29.3955H139.486V28.1299H139.346C139.06 28.5838 138.659 28.9539 138.184 29.2024C137.709 29.4508 137.176 29.5686 136.641 29.5439C136.263 29.5832 135.88 29.5428 135.519 29.4254C135.157 29.308 134.824 29.1162 134.542 28.8623C134.259 28.6083 134.032 28.2979 133.877 27.9511C133.721 27.6043 133.64 27.2287 133.639 26.8486ZM139.428 26.0791V25.3261L137.229 25.4668C135.988 25.5498 135.426 25.9716 135.426 26.7656C135.426 27.5761 136.129 28.0478 137.096 28.0478C137.379 28.0765 137.665 28.0479 137.937 27.9637C138.209 27.8795 138.462 27.7415 138.679 27.5578C138.897 27.3741 139.075 27.1485 139.204 26.8945C139.332 26.6405 139.408 26.3631 139.428 26.0791Z" fill="white" />
            <path d="M143.533 24.8882C143.533 22.0425 144.996 20.2398 147.271 20.2398C147.834 20.2138 148.393 20.3486 148.882 20.6284C149.371 20.9082 149.77 21.3214 150.033 21.8198H150.166V16.8735H151.943V29.395H150.24V27.9721H150.1C149.816 28.4671 149.403 28.8752 148.905 29.1521C148.406 29.4291 147.841 29.5644 147.271 29.5434C144.98 29.5435 143.533 27.7407 143.533 24.8882ZM145.369 24.8882C145.369 26.7983 146.27 27.9478 147.775 27.9478C149.273 27.9478 150.199 26.7818 150.199 24.896C150.199 23.0191 149.264 21.8364 147.775 21.8364C146.279 21.8364 145.369 22.9937 145.369 24.8882H145.369Z" fill="white" />
            <path d="M159.296 24.8886C159.24 24.2967 159.308 23.6996 159.495 23.1355C159.683 22.5713 159.986 22.0526 160.386 21.6127C160.786 21.1727 161.274 20.8212 161.817 20.5806C162.361 20.3401 162.949 20.2158 163.544 20.2158C164.138 20.2158 164.726 20.3401 165.27 20.5806C165.813 20.8212 166.301 21.1727 166.701 21.6127C167.101 22.0526 167.404 22.5713 167.592 23.1355C167.779 23.6996 167.847 24.2967 167.791 24.8886C167.848 25.481 167.781 26.079 167.594 26.644C167.407 27.2091 167.104 27.7287 166.704 28.1695C166.304 28.6104 165.816 28.9626 165.272 29.2037C164.727 29.4448 164.139 29.5693 163.544 29.5693C162.948 29.5693 162.36 29.4448 161.815 29.2037C161.271 28.9626 160.783 28.6104 160.383 28.1695C159.983 27.7287 159.68 27.2091 159.493 26.644C159.306 26.079 159.239 25.481 159.296 24.8886ZM165.962 24.8886C165.962 22.9364 165.085 21.7948 163.546 21.7948C162.002 21.7948 161.132 22.9364 161.132 24.8886C161.132 26.8564 162.002 27.9892 163.546 27.9892C165.085 27.9891 165.962 26.8485 165.962 24.8886Z" fill="white" />
            <path d="M170.176 20.3892H171.887V21.8199H172.02C172.245 21.3061 172.625 20.8753 173.107 20.5877C173.588 20.3001 174.148 20.17 174.707 20.2154C175.145 20.1825 175.585 20.2485 175.994 20.4087C176.404 20.5689 176.772 20.8191 177.071 21.1408C177.37 21.4625 177.593 21.8474 177.724 22.2671C177.854 22.6867 177.889 23.1303 177.824 23.565V29.395H176.047V24.0113C176.047 22.5641 175.418 21.8443 174.104 21.8443C173.806 21.8305 173.509 21.8811 173.233 21.9928C172.957 22.1044 172.708 22.2745 172.504 22.4912C172.3 22.708 172.145 22.9664 172.05 23.2486C171.954 23.5309 171.922 23.8304 171.953 24.1265V29.3951H170.176V20.3892Z" fill="white" />
            <path d="M187.867 18.147V20.4302H189.818V21.9272H187.867V26.5581C187.867 27.5014 188.256 27.9145 189.141 27.9145C189.367 27.9138 189.593 27.9001 189.818 27.8735V29.354C189.499 29.4111 189.176 29.4414 188.852 29.4448C186.875 29.4448 186.088 28.7495 186.088 27.0131V21.9272H184.658V20.4301H186.088V18.147H187.867Z" fill="white" />
            <path d="M192.246 16.8735H194.008V21.8364H194.148C194.385 21.3178 194.775 20.8846 195.267 20.5959C195.758 20.3072 196.326 20.177 196.894 20.2231C197.33 20.1994 197.766 20.2722 198.171 20.4363C198.575 20.6004 198.939 20.8517 199.235 21.1724C199.531 21.4931 199.753 21.8752 199.884 22.2914C200.016 22.7077 200.054 23.1479 199.996 23.5806V29.395H198.217V24.019C198.217 22.5805 197.547 21.852 196.291 21.852C195.986 21.827 195.678 21.869 195.391 21.9751C195.103 22.0812 194.842 22.2488 194.626 22.4663C194.41 22.6838 194.245 22.9458 194.14 23.2341C194.036 23.5224 193.996 23.8299 194.024 24.1352V29.395H192.246L192.246 16.8735Z" fill="white" />
            <path d="M210.359 26.964C210.117 27.7871 209.594 28.499 208.881 28.9753C208.167 29.4516 207.309 29.6619 206.456 29.5694C205.863 29.5851 205.273 29.4715 204.728 29.2364C204.183 29.0014 203.696 28.6505 203.3 28.2082C202.904 27.766 202.61 27.2428 202.436 26.6752C202.263 26.1076 202.215 25.509 202.296 24.921C202.217 24.3313 202.266 23.7314 202.439 23.1621C202.612 22.5927 202.905 22.0672 203.299 21.621C203.693 21.1749 204.178 20.8186 204.721 20.5761C205.264 20.3337 205.854 20.2109 206.449 20.216C208.954 20.216 210.466 21.928 210.466 24.756V25.3761H204.107V25.4757C204.079 25.8062 204.12 26.1389 204.229 26.4524C204.337 26.7659 204.51 27.0533 204.735 27.2962C204.961 27.5391 205.235 27.7322 205.54 27.863C205.845 27.9938 206.174 28.0594 206.505 28.0557C206.93 28.1068 207.361 28.0302 207.743 27.8358C208.124 27.6414 208.439 27.3379 208.648 26.9639L210.359 26.964ZM204.107 24.0617H208.656C208.678 23.7594 208.637 23.4558 208.535 23.1704C208.433 22.8849 208.273 22.624 208.064 22.4043C207.855 22.1845 207.603 22.0109 207.323 21.8946C207.043 21.7782 206.742 21.7217 206.439 21.7287C206.131 21.7248 205.826 21.7825 205.542 21.8984C205.257 22.0143 204.998 22.186 204.781 22.4034C204.563 22.6209 204.392 22.8796 204.276 23.1644C204.16 23.4492 204.103 23.7543 204.107 24.0617H204.107Z" fill="white" />
        </svg>